# xmcd CD database file
# Generated: Tue Jul 9 23:29:14 2002 by KSCD
# 
# Track frame offsets:
#       150
#       23983
#       44234
#       70577
#       88500
#       111675
#       132483
#       151074
#       186554
#       214221
#       245423
#       250353
#
# Disc length: 3579 seconds
#
# Revision: 1
# Processed by: cddbd v1.4PL0 Copyright (c) Steve Scherf et al.
# Submitted via: Kscd 1.3.2
#
DISCID=b70df90c
DTITLE=Muddy Waters - Got My Mojo Working
DYEAR=1900
DGENRE=
TTITLE0=Nine Below Zero
TTITLE1=Baby Please Don't Go
TTITLE2=They Call Me Muddy Waters
TTITLE3=Everything's Gonna Be Alright
TTITLE4=Mannish Boy
TTITLE5=Lonesome In My Bedroom
TTITLE6=Corrine, Corrina
TTITLE7=Kansas City
TTITLE8=Caldonia
TTITLE9=Long Distance Call
TTITLE10=Hold It (inst.)
TTITLE11=Got My Mojo Working
EXTD=
EXTT0=
EXTT1=
EXTT2=
EXTT3=
EXTT4=
EXTT5=
EXTT6=
EXTT7=
EXTT8=
EXTT9=
EXTT10=
EXTT11=
PLAYORDER=
